<svg width="1200" height="630" viewBox="0 0 1200 630" fill="none" xmlns="http://www.w3.org/2000/svg">
  <rect width="1200" height="630" fill="#0F172A"/>
  <circle cx="1030" cy="120" r="170" fill="#14B8A6" fill-opacity="0.14"/>
  <circle cx="160" cy="510" r="220" fill="#38BDF8" fill-opacity="0.12"/>
  <path d="M112 126H1088C1137.7 126 1178 166.3 1178 216V414C1178 463.7 1137.7 504 1088 504H112C62.3 504 22 463.7 22 414V216C22 166.3 62.3 126 112 126Z" stroke="#334155" stroke-width="4"/>
  <text x="88" y="190" fill="#E2E8F0" font-family="Arial, Helvetica, sans-serif" font-size="54" font-weight="700">PayShare</text>
  <text x="88" y="244" fill="#A5F3FC" font-family="Arial, Helvetica, sans-serif" font-size="28" font-weight="700">Collaborative Expense Manager</text>
  <text x="88" y="308" fill="#CBD5E1" font-family="Arial, Helvetica, sans-serif" font-size="26">Split bills, track balances, and manage shared expenses</text>
  <text x="88" y="350" fill="#CBD5E1" font-family="Arial, Helvetica, sans-serif" font-size="26">with React, Vite, localStorage, and GitHub Pages.</text>
  <rect x="88" y="396" rx="18" ry="18" width="214" height="54" fill="#14B8A6"/>
  <text x="119" y="432" fill="#082F49" font-family="Arial, Helvetica, sans-serif" font-size="24" font-weight="700">Bill Splitting</text>
  <rect x="318" y="396" rx="18" ry="18" width="194" height="54" fill="#38BDF8"/>
  <text x="350" y="432" fill="#082F49" font-family="Arial, Helvetica, sans-serif" font-size="24" font-weight="700">Debt Tracking</text>
  <rect x="528" y="396" rx="18" ry="18" width="238" height="54" fill="#A5F3FC"/>
  <text x="556" y="432" fill="#082F49" font-family="Arial, Helvetica, sans-serif" font-size="24" font-weight="700">Persistent Storage</text>
</svg>
